<svg xmlns="http://www.w3.org/2000/svg" viewBox="0 0 351.63 134.8"><defs><style>.cls-1{fill:#fff;}</style></defs><g id="Calque_2" data-name="Calque 2"><g id="Textes"><path class="cls-1" d="M182.54,97.87l2.85,1.56a17.53,17.53,0,0,1-5,6.71,9.86,9.86,0,0,1-5.88,1.93,8.27,8.27,0,0,1-5.6-1.89c-1.48-1.25-2.27-3.26-2.39-6a16.45,16.45,0,0,1-5.47,5.69,14.89,14.89,0,0,1-8.22,2.21q-6.15,0-8.82-3.68t-1.83-9.73L145.8,68.3l-.55-.65h-6.52l.46-3.21q3.76,0,7.44-.09c2.44-.06,4.89-.22,7.34-.46l.55.55-4.13,30.31a14.12,14.12,0,0,0,0,4.5,6,6,0,0,0,1.61,3.26,4.64,4.64,0,0,0,3.44,1.24q4.5,0,8-4.68t4.73-12.95l2.57-17.82-.55-.65h-6.52l.46-3.21q3.77,0,7.44-.09c2.45-.06,4.9-.22,7.35-.46l.55.55-4.78,33.62a8.81,8.81,0,0,0,.23,4.31,1.93,1.93,0,0,0,1.79,1.38,4,4,0,0,0,3-1.65A23.3,23.3,0,0,0,182.54,97.87Z"/><path class="cls-1" d="M259.88,97.87l2.84,1.56c-1.53,3.19-3.18,5.42-5,6.71a9.81,9.81,0,0,1-5.87,1.93,7.86,7.86,0,0,1-6.43-2.8c-1.54-1.87-2-4.86-1.38-9L247,77.57A19.26,19.26,0,0,0,247.2,73a6.6,6.6,0,0,0-1.33-3.68,4.51,4.51,0,0,0-3.72-1.42,11.16,11.16,0,0,0-3.35.6,10.89,10.89,0,0,0-3.77,2.2,14.21,14.21,0,0,0-3.35,4.59,25,25,0,0,0-2.11,7.58L226,107.15H217.9L222,77.57a24.71,24.71,0,0,0,.14-4.54,6.48,6.48,0,0,0-1.24-3.68,4.35,4.35,0,0,0-3.67-1.42,10.31,10.31,0,0,0-3.4.69A11.77,11.77,0,0,0,210,71.05a15.72,15.72,0,0,0-3.44,5,29.7,29.7,0,0,0-2.25,8.27l-3.13,22.87h-8.26l5.42-38.85-.55-.65h-6.25l.46-3.21c2.39,0,4.71,0,7-.09s4.62-.19,7.07-.37l.55.64-1,6.34h.65a17.48,17.48,0,0,1,5.28-5.24,14.35,14.35,0,0,1,8-2.2A11.39,11.39,0,0,1,227,65.77a9.56,9.56,0,0,1,3.4,6,14.94,14.94,0,0,1,5.84-6,16.13,16.13,0,0,1,8.31-2.3q6.06,0,8.91,3.67t1.93,9.74l-3.31,21.13a7.84,7.84,0,0,0,.18,4.31,2,2,0,0,0,1.84,1.38,4,4,0,0,0,3-1.65A23.3,23.3,0,0,0,259.88,97.87Z"/><path class="cls-1" d="M285.78,108.07a18.42,18.42,0,0,1-9-2.12,14.82,14.82,0,0,1-6.07-6.29,21.71,21.71,0,0,1-2.2-10.24A26.71,26.71,0,0,1,271.82,76a24.18,24.18,0,0,1,8.95-9.14,24.51,24.51,0,0,1,12.63-3.31,22.61,22.61,0,0,1,6.15.83A11.12,11.12,0,0,1,304.38,67a6.64,6.64,0,0,1,1.88,5,8.83,8.83,0,0,1-2.3,5.88,19.83,19.83,0,0,1-6.38,4.68,42.51,42.51,0,0,1-9.51,3.26,84.67,84.67,0,0,1-11.66,1.79V84.65a48.27,48.27,0,0,0,8.72-1.57,27.41,27.41,0,0,0,6.62-2.75A13.76,13.76,0,0,0,296,76.61a7.54,7.54,0,0,0,1.47-4.46,5.61,5.61,0,0,0-1.33-4,5.09,5.09,0,0,0-3.9-1.43,10.19,10.19,0,0,0-6,1.93,17.11,17.11,0,0,0-4.68,5.19,26.19,26.19,0,0,0-3,7.35,35.52,35.52,0,0,0-1,8.5,21.45,21.45,0,0,0,1.38,8.36,9.82,9.82,0,0,0,3.76,4.68,10,10,0,0,0,5.33,1.47,11.59,11.59,0,0,0,7-2.43,20.9,20.9,0,0,0,5.42-5.84l2.76,1.66a23.34,23.34,0,0,1-3.95,5,20,20,0,0,1-5.83,4A18.26,18.26,0,0,1,285.78,108.07Zm19.38-67-11.94,15.8h-2.76L295.88,41Z"/><path class="cls-1" d="M334.64,63.52a16.77,16.77,0,0,1,8.73,2.3,16,16,0,0,1,6.06,6.52,21.33,21.33,0,0,1,2.2,10,27.27,27.27,0,0,1-1.79,10,25.83,25.83,0,0,1-5,8.18,24.11,24.11,0,0,1-7.44,5.56,20.93,20.93,0,0,1-9.1,2,16.73,16.73,0,0,1-8.72-2.3,16.09,16.09,0,0,1-6.07-6.52,21.28,21.28,0,0,1-2.2-9.92,27.87,27.87,0,0,1,1.79-10,25.82,25.82,0,0,1,5-8.22,23.87,23.87,0,0,1,7.44-5.56A20.71,20.71,0,0,1,334.64,63.52ZM329,104.85a8.72,8.72,0,0,0,5.6-2,15.81,15.81,0,0,0,4.18-5.33,31.88,31.88,0,0,0,2.62-7.62,41.76,41.76,0,0,0,.92-8.77,25.23,25.23,0,0,0-1.06-7.86,11,11,0,0,0-3-4.87,6.59,6.59,0,0,0-4.5-1.7,8.52,8.52,0,0,0-5.51,2,16.31,16.31,0,0,0-4.18,5.37,31.42,31.42,0,0,0-2.61,7.58,40.38,40.38,0,0,0-.92,8.72,25.66,25.66,0,0,0,1.05,7.9,10.85,10.85,0,0,0,2.94,4.87A6.55,6.55,0,0,0,329,104.85Z"/><path class="cls-1" d="M123.07,133.05a33.6,33.6,0,0,1,9.59-7.69A46.76,46.76,0,0,1,144.31,121a91.51,91.51,0,0,1,24.47-1.86,235.27,235.27,0,0,1,24,2.42l23.61,3.57c7.83,1.18,15.65,2.25,23.47,2.92a171.76,171.76,0,0,0,23.44.73,101.42,101.42,0,0,0,23.06-3.41c1.88-.51,3.73-1.11,5.57-1.77s3.65-1.38,5.44-2.18a76,76,0,0,0,10.36-5.64l.64.84a68,68,0,0,1-20.9,12.18,96,96,0,0,1-23.78,5.33,164.27,164.27,0,0,1-24.29.4c-8.05-.47-16.06-1.29-24-2.31-15.87-2-31.53-4.79-47.09-6.22a112.7,112.7,0,0,0-23.15-.11c-.95.1-1.88.27-2.84.39s-1.88.33-2.8.56-1.87.41-2.78.69-1.83.55-2.74.86a40.16,40.16,0,0,0-10.24,5.42Z"/><path class="cls-1" d="M149.57,8.91a49.26,49.26,0,0,1,1,21.86,57.59,57.59,0,0,1-3,10.71,79.8,79.8,0,0,1-4.77,10c-3.58,6.39-7.77,12.23-11.61,18.16a98.88,98.88,0,0,0-5.29,9.11,53.19,53.19,0,0,0-3.8,9.9l-.37,0a36.92,36.92,0,0,1,1.86-10.78,64.69,64.69,0,0,1,4.25-10.11C131.13,61.19,135,55.15,138.27,49a92.27,92.27,0,0,0,7.94-19.17,72.43,72.43,0,0,0,2.08-10.21c.47-3.48.7-7,.9-10.64Z"/><path class="cls-1" d="M132.21,37.83c-1.87,7.18-4.88,14-7.3,20.63a108.64,108.64,0,0,0-5.34,20.38l-.76,5.25c-.18,1.77-.39,3.54-.61,5.31-.29,3.57-.68,7.14-.89,10.75s-.49,7.22-.8,10.86-.51,7.28-1,10.95l-.38,0c-.39-1.8-.72-3.61-1-5.43-.16-.91-.31-1.81-.45-2.72s-.27-1.82-.37-2.74c-.42-3.65-.83-7.31-1-11s-.19-7.39-.11-11.1c.1-1.85.22-3.71.36-5.57s.43-3.72.66-5.58a68.71,68.71,0,0,1,6.81-21.49,107.64,107.64,0,0,1,5.6-9.58c1-1.54,2-3.07,3-4.58s2.07-3,3.18-4.52Z"/><path class="cls-1" d="M123,26.79c-8.3,15.12-15.85,31.25-13,54.69-11.37-25,5.22-54.73,11.29-62.16l2.62,4.79C126.72,9.22,139.13,2,148.62,0a71.8,71.8,0,0,1-6.55,16.75c1.09-7.41.67-9.47.94-11.34-9.49,5.18-17.1,18.05-17.47,26A10.8,10.8,0,0,1,123,26.79Z"/><path class="cls-1" d="M71.91,106.2l.32-2.27h-.51ZM99.6,53.51a13.44,13.44,0,0,0-5-4.69,24,24,0,0,0-7-2.48,42.56,42.56,0,0,0-8-.73H52.67l-.46,3.21H59l.55.55L52.68,98.66l9.44,1.55,2.77-19.7H75.72a32.39,32.39,0,0,0,8.41-1.19,31.61,31.61,0,0,0,8.4-3.63A20.56,20.56,0,0,0,99,69.54a15.49,15.49,0,0,0,2.48-8.78A13.39,13.39,0,0,0,99.6,53.51ZM88.77,71.46A12.94,12.94,0,0,1,82.29,76,26.84,26.84,0,0,1,74,77.3H65.34L69.2,49.37l.55-.55h8.18a16.14,16.14,0,0,1,6.66,1.34,10.78,10.78,0,0,1,4.82,4.27,15,15,0,0,1,1.84,8Q91.25,68.21,88.77,71.46Z"/><path class="cls-1" d="M109.35,133.06A100.32,100.32,0,0,0,86.7,113.79l-1.58-.94L83.49,112c-.54-.29-1.07-.6-1.61-.88l-1.66-.79c-.55-.26-1.09-.55-1.66-.78l-1.69-.71c-1.11-.5-2.27-.89-3.42-1.31a75,75,0,0,0-14.17-3.63A90,90,0,0,0,44.6,102.8a123,123,0,0,0-14.82,1A215.28,215.28,0,0,0,.36,110.05l-.36-1a126.13,126.13,0,0,1,29.12-9.42,91.31,91.31,0,0,1,31-.84,75.61,75.61,0,0,1,15.13,4A69.73,69.73,0,0,1,89,110.16a75.19,75.19,0,0,1,21.17,22.26Z"/></g></g></svg>