<svg xmlns="http://www.w3.org/2000/svg" viewBox="0 0 201.63 77.3"><defs><style>.cls-1{fill:#1453b3;}</style></defs><g id="Calque_2" data-name="Calque 2"><g id="Roll_nav" data-name="Roll nav"><path class="cls-1" d="M104.67,56.12l1.63.9a10,10,0,0,1-2.84,3.84A5.6,5.6,0,0,1,100.09,62a4.76,4.76,0,0,1-3.21-1.08,4.56,4.56,0,0,1-1.37-3.45,9.51,9.51,0,0,1-3.14,3.26A8.48,8.48,0,0,1,87.66,62q-3.52,0-5.06-2.11a7.46,7.46,0,0,1-1-5.58l2-15.12-.31-.37H79.55L79.81,37c1.44,0,2.86,0,4.27-.05s2.81-.12,4.21-.27l.32.32L86.24,54.33a8,8,0,0,0,0,2.58,3.45,3.45,0,0,0,.92,1.87,2.63,2.63,0,0,0,2,.71,5.76,5.76,0,0,0,4.61-2.68,16.08,16.08,0,0,0,2.72-7.43l1.47-10.22-.32-.37H93.87L94.14,37c1.44,0,2.86,0,4.26-.05s2.81-.12,4.22-.27l.31.32-2.74,19.28a5,5,0,0,0,.14,2.47,1.09,1.09,0,0,0,1,.79,2.26,2.26,0,0,0,1.71-1A13,13,0,0,0,104.67,56.12Z"/><path class="cls-1" d="M149,56.12l1.63.9a10.17,10.17,0,0,1-2.84,3.84A5.63,5.63,0,0,1,144.44,62a4.52,4.52,0,0,1-3.69-1.61q-1.32-1.61-.79-5.13l1.68-10.75a10.9,10.9,0,0,0,.11-2.61,3.79,3.79,0,0,0-.76-2.1,2.57,2.57,0,0,0-2.14-.82,6.71,6.71,0,0,0-1.92.34,6.27,6.27,0,0,0-2.16,1.27,8,8,0,0,0-1.92,2.63,14.31,14.31,0,0,0-1.21,4.35l-2.06,13.9H125l2.37-17a15.22,15.22,0,0,0,.08-2.61,3.76,3.76,0,0,0-.71-2.1,2.5,2.5,0,0,0-2.11-.82,5.78,5.78,0,0,0-2,.4,6.75,6.75,0,0,0-2.21,1.39,8.93,8.93,0,0,0-2,2.85,16.94,16.94,0,0,0-1.29,4.74l-1.79,13.11h-4.74l3.11-22.28-.32-.37h-3.58L110.1,37c1.37,0,2.7,0,4-.05s2.65-.11,4.05-.21l.32.37-.58,3.63h.37a10.08,10.08,0,0,1,3-3,8.23,8.23,0,0,1,4.61-1.27,6.52,6.52,0,0,1,4.26,1.29,5.42,5.42,0,0,1,2,3.45,8.59,8.59,0,0,1,3.35-3.42,9.22,9.22,0,0,1,4.76-1.32,6.07,6.07,0,0,1,5.11,2.11,7.05,7.05,0,0,1,1.11,5.58l-1.9,12.12a4.51,4.51,0,0,0,.11,2.47,1.13,1.13,0,0,0,1,.79,2.26,2.26,0,0,0,1.71-1A13,13,0,0,0,149,56.12Z"/><path class="cls-1" d="M163.87,62a10.63,10.63,0,0,1-5.16-1.21,8.55,8.55,0,0,1-3.48-3.61A12.51,12.51,0,0,1,154,51.28a15.31,15.31,0,0,1,1.9-7.72A13.81,13.81,0,0,1,161,38.32a14.1,14.1,0,0,1,7.24-1.9,12.81,12.81,0,0,1,3.53.48,6.23,6.23,0,0,1,2.77,1.53,3.82,3.82,0,0,1,1.08,2.84,5,5,0,0,1-1.32,3.37,11.6,11.6,0,0,1-3.66,2.69,25.18,25.18,0,0,1-5.45,1.87,50,50,0,0,1-6.69,1V48.54a28.17,28.17,0,0,0,5-.9,15.66,15.66,0,0,0,3.79-1.58,7.91,7.91,0,0,0,2.43-2.13,4.33,4.33,0,0,0,.84-2.56,3.28,3.28,0,0,0-.76-2.29,2.94,2.94,0,0,0-2.24-.81,5.83,5.83,0,0,0-3.45,1.1,9.87,9.87,0,0,0-2.69,3,15.36,15.36,0,0,0-1.71,4.21,20,20,0,0,0-.58,4.87,12.27,12.27,0,0,0,.79,4.8,5.63,5.63,0,0,0,2.16,2.68,5.72,5.72,0,0,0,3,.85,6.67,6.67,0,0,0,4-1.4,11.86,11.86,0,0,0,3.1-3.34l1.58.94a13,13,0,0,1-2.26,2.87,11.53,11.53,0,0,1-3.34,2.27A10.49,10.49,0,0,1,163.87,62ZM175,23.52l-6.84,9.06h-1.58l3.1-9.06Z"/><path class="cls-1" d="M191.89,36.42a9.55,9.55,0,0,1,5,1.32,9.19,9.19,0,0,1,3.48,3.74,12.3,12.3,0,0,1,1.26,5.74,15.87,15.87,0,0,1-1,5.72,15.09,15.09,0,0,1-2.87,4.68,13.81,13.81,0,0,1-4.27,3.19A12,12,0,0,1,188.25,62a9.58,9.58,0,0,1-5-1.32,9.17,9.17,0,0,1-3.47-3.74,12,12,0,0,1-1.27-5.69,15.84,15.84,0,0,1,1-5.74,14.64,14.64,0,0,1,2.87-4.71,13.93,13.93,0,0,1,4.26-3.19A12,12,0,0,1,191.89,36.42Zm-3.21,23.7A5,5,0,0,0,191.89,59a9,9,0,0,0,2.4-3.05,18,18,0,0,0,1.5-4.37,24,24,0,0,0,.52-5,14.57,14.57,0,0,0-.6-4.51A6.39,6.39,0,0,0,194,39.24a3.78,3.78,0,0,0-2.58-1,4.87,4.87,0,0,0-3.17,1.16,9.44,9.44,0,0,0-2.39,3.08,18,18,0,0,0-1.5,4.34,23.66,23.66,0,0,0-.53,5,14.36,14.36,0,0,0,.61,4.52,6.22,6.22,0,0,0,1.68,2.8A3.75,3.75,0,0,0,188.68,60.12Z"/><path class="cls-1" d="M70.57,76.29a19.34,19.34,0,0,1,5.5-4.4,26.66,26.66,0,0,1,6.68-2.5,52.76,52.76,0,0,1,14-1.07,136.21,136.21,0,0,1,13.78,1.39l13.54,2.05c4.49.67,9,1.29,13.46,1.67a99,99,0,0,0,13.44.42,58.4,58.4,0,0,0,13.22-1.95c1.08-.3,2.14-.64,3.19-1s2.1-.79,3.13-1.25a44.53,44.53,0,0,0,5.94-3.24l.36.49a39,39,0,0,1-12,7,55.12,55.12,0,0,1-13.64,3.06,95.2,95.2,0,0,1-13.92.23c-4.62-.27-9.21-.74-13.77-1.33-9.1-1.17-18.08-2.74-27-3.57a65.42,65.42,0,0,0-13.27-.06c-.55.06-1.09.16-1.63.23s-1.08.19-1.61.32-1.07.23-1.6.39-1,.32-1.56.5A23,23,0,0,0,71,76.73Z"/><path class="cls-1" d="M85.76,5.11a28.19,28.19,0,0,1,.57,12.54,33.45,33.45,0,0,1-1.73,6.13,46.11,46.11,0,0,1-2.74,5.71c-2,3.66-4.45,7-6.65,10.41a56,56,0,0,0-3,5.23A30.51,30.51,0,0,0,70,50.8l-.21,0a21.37,21.37,0,0,1,1.06-6.17,38,38,0,0,1,2.44-5.8c1.91-3.71,4.11-7.18,6-10.72a53,53,0,0,0,4.55-11A40.83,40.83,0,0,0,85,11.23c.27-2,.4-4,.52-6.1Z"/><path class="cls-1" d="M75.81,21.69c-1.07,4.12-2.79,8-4.19,11.83a62.48,62.48,0,0,0-3.06,11.69l-.43,3c-.11,1-.23,2-.35,3.05-.17,2-.39,4.09-.51,6.16s-.28,4.14-.46,6.22-.29,4.18-.56,6.28L66,70c-.23-1-.41-2.08-.59-3.12-.09-.52-.18-1-.26-1.56s-.15-1-.21-1.57c-.24-2.09-.48-4.19-.56-6.31s-.11-4.23-.06-6.36c.06-1.06.12-2.13.2-3.2s.25-2.13.39-3.2a39.21,39.21,0,0,1,3.9-12.32,63.08,63.08,0,0,1,3.21-5.49c.57-.89,1.15-1.76,1.74-2.63S75,22.45,75.61,21.6Z"/><path class="cls-1" d="M70.53,15.36c-4.77,8.67-9.1,17.92-7.47,31.36-6.51-14.35,3-31.38,6.48-35.64L71,13.83C72.66,5.28,79.78,1.13,85.22,0a40.53,40.53,0,0,1-3.76,9.6A56.85,56.85,0,0,0,82,3.1c-5.44,3-9.8,10.35-10,14.92A6.18,6.18,0,0,1,70.53,15.36Z"/><path class="cls-1" d="M41.23,60.9l.19-1.3h-.3ZM57.12,30.68A7.67,7.67,0,0,0,54.24,28a13.71,13.71,0,0,0-4-1.43,24.64,24.64,0,0,0-4.59-.42H30.2L29.94,28h3.9l.31.31L30.21,56.58l5.41.88,1.59-11.29h6.21a18.5,18.5,0,0,0,4.82-.69,17.9,17.9,0,0,0,4.82-2.08,11.75,11.75,0,0,0,3.69-3.53,8.89,8.89,0,0,0,1.42-5A7.74,7.74,0,0,0,57.12,30.68ZM50.9,41a7.4,7.4,0,0,1-3.71,2.61,15.54,15.54,0,0,1-4.77.73h-5l2.21-16L40,28h4.69a9.23,9.23,0,0,1,3.81.76,6.23,6.23,0,0,1,2.77,2.45,8.6,8.6,0,0,1,1,4.58A8.4,8.4,0,0,1,50.9,41Z"/><path class="cls-1" d="M62.7,76.3a57.26,57.26,0,0,0-13-11l-.9-.54-.93-.5-.93-.5-1-.45c-.32-.15-.63-.31-1-.45l-1-.41c-.64-.28-1.3-.51-2-.75A42.93,42.93,0,0,0,34,59.57,51.39,51.39,0,0,0,25.57,59a69.18,69.18,0,0,0-8.49.57A124.56,124.56,0,0,0,.21,63.11L0,62.54a72.13,72.13,0,0,1,16.7-5.4,52.33,52.33,0,0,1,17.75-.49A43.36,43.36,0,0,1,43.12,59a39.84,39.84,0,0,1,7.93,4.2A43.15,43.15,0,0,1,63.19,75.93Z"/></g></g></svg>