<svg xmlns="http://www.w3.org/2000/svg" viewBox="0 0 88.38 118.99"><defs><style>.cls-1{fill:none;stroke:#d3ba00;stroke-linecap:round;stroke-linejoin:round;stroke-width:3px;}</style></defs><g id="Calque_2" data-name="Calque 2"><g id="Textes"><polyline class="cls-1" points="24.05 9.55 74 9.55 74 101.38 1.5 101.38 1.5 9.55 17.74 9.55"/><polyline class="cls-1" points="74 17.61 80.44 17.61 80.44 109.44 7.94 109.44 7.94 105.67"/><polyline class="cls-1" points="80.44 25.66 86.88 25.66 86.88 117.49 14.39 117.49 14.39 113.72"/><path class="cls-1" d="M14,16.66v20a5.17,5.17,0,1,0,10.33,0V9.05a7.55,7.55,0,1,0-15.1,0"/><line class="cls-1" x1="14.39" y1="58.46" x2="59.8" y2="58.46"/><line class="cls-1" x1="14.39" y1="69.73" x2="59.8" y2="69.73"/><line class="cls-1" x1="14.39" y1="81.01" x2="59.8" y2="81.01"/></g></g></svg>