<svg xmlns="http://www.w3.org/2000/svg" viewBox="0 0 152.2 126.35"><defs><style>.cls-1,.cls-2{fill:none;stroke:#89d369;stroke-linejoin:round;stroke-width:3.54px;}.cls-2{stroke-linecap:round;}</style></defs><g id="Calque_2" data-name="Calque 2"><g id="Roll_titre" data-name="Roll titre"><polygon class="cls-1" points="76.89 124.58 12.93 92.79 12.93 1.77 76.89 33.56 76.89 124.58"/><line class="cls-2" x1="25.58" y1="25.28" x2="64.6" y2="44.67"/><line class="cls-2" x1="25.58" y1="38.4" x2="64.6" y2="57.79"/><line class="cls-2" x1="25.58" y1="51.52" x2="64.6" y2="70.91"/><line class="cls-2" x1="25.58" y1="64.64" x2="64.6" y2="84.03"/><line class="cls-2" x1="25.58" y1="77.76" x2="64.6" y2="97.15"/><polygon class="cls-1" points="76.89 124.58 140.85 92.79 140.85 1.77 76.89 33.56 76.89 124.58"/><line class="cls-2" x1="128.2" y1="25.28" x2="89.18" y2="44.67"/><line class="cls-2" x1="128.2" y1="38.4" x2="89.18" y2="57.79"/><line class="cls-2" x1="128.2" y1="51.52" x2="89.18" y2="70.91"/><line class="cls-2" x1="128.2" y1="64.64" x2="89.18" y2="84.03"/><line class="cls-2" x1="128.2" y1="77.76" x2="89.18" y2="97.15"/><polyline class="cls-2" points="76.89 124.58 150.44 100.34 150.44 10.98 145.59 13.08"/><polyline class="cls-2" points="75.31 124.58 1.77 100.34 1.77 10.98 6.62 13.08"/></g></g></svg>