<svg xmlns="http://www.w3.org/2000/svg" viewBox="0 0 42.4 35.2"><defs><style>.cls-1,.cls-2,.cls-3{fill:none;stroke-linejoin:round;}.cls-1,.cls-2{stroke:#89d369;}.cls-2,.cls-3{stroke-linecap:round;}.cls-3{stroke:#fff;}</style></defs><g id="Calque_2" data-name="Calque 2"><g id="Textes"><polygon class="cls-1" points="21.42 34.7 3.61 25.84 3.61 0.5 21.42 9.35 21.42 34.7"/><line class="cls-2" x1="7.13" y1="7.05" x2="17.99" y2="12.45"/><line class="cls-2" x1="7.13" y1="10.7" x2="17.99" y2="16.1"/><line class="cls-2" x1="7.13" y1="14.35" x2="17.99" y2="19.75"/><line class="cls-2" x1="7.13" y1="18" x2="17.99" y2="23.41"/><line class="cls-2" x1="7.13" y1="21.66" x2="17.99" y2="27.06"/><polygon class="cls-1" points="21.42 34.7 39.23 25.84 39.23 0.5 21.42 9.35 21.42 34.7"/><line class="cls-2" x1="35.7" y1="7.05" x2="24.84" y2="12.45"/><line class="cls-2" x1="35.7" y1="10.7" x2="24.84" y2="16.1"/><line class="cls-2" x1="35.7" y1="14.35" x2="24.84" y2="19.75"/><line class="cls-2" x1="35.7" y1="18" x2="24.84" y2="23.41"/><line class="cls-2" x1="35.7" y1="21.66" x2="24.84" y2="27.06"/><polyline class="cls-2" points="21.42 34.7 41.9 27.95 41.9 3.07 40.55 3.65"/><polyline class="cls-2" points="20.98 34.7 0.5 27.95 0.5 3.07 1.85 3.65"/><polygon class="cls-3" points="21.42 34.7 3.61 25.84 3.61 0.5 21.42 9.35 21.42 34.7"/><line class="cls-3" x1="7.13" y1="7.05" x2="17.99" y2="12.45"/><line class="cls-3" x1="7.13" y1="10.7" x2="17.99" y2="16.1"/><line class="cls-3" x1="7.13" y1="14.35" x2="17.99" y2="19.75"/><line class="cls-3" x1="7.13" y1="18" x2="17.99" y2="23.41"/><line class="cls-3" x1="7.13" y1="21.66" x2="17.99" y2="27.06"/><polygon class="cls-3" points="21.42 34.7 39.23 25.84 39.23 0.5 21.42 9.35 21.42 34.7"/><line class="cls-3" x1="35.7" y1="7.05" x2="24.84" y2="12.45"/><line class="cls-3" x1="35.7" y1="10.7" x2="24.84" y2="16.1"/><line class="cls-3" x1="35.7" y1="14.35" x2="24.84" y2="19.75"/><line class="cls-3" x1="35.7" y1="18" x2="24.84" y2="23.41"/><line class="cls-3" x1="35.7" y1="21.66" x2="24.84" y2="27.06"/><polyline class="cls-3" points="21.42 34.7 41.9 27.95 41.9 3.07 40.55 3.65"/><polyline class="cls-3" points="20.98 34.7 0.5 27.95 0.5 3.07 1.85 3.65"/></g></g></svg>