<svg xmlns="http://www.w3.org/2000/svg" viewBox="0 0 32 32"><defs><style>.cls-1{fill:none;}.cls-2{fill:#1453b3;}</style></defs><g id="Calque_2" data-name="Calque 2"><g id="Calque_1-2" data-name="Calque 1"><rect class="cls-1" width="32" height="32" rx="3.96"/><path class="cls-2" d="M12.79,28.49a6.13,6.13,0,0,0-4.43-3.26A11.46,11.46,0,0,0,5.49,25a10.33,10.33,0,0,0-2.88.51l-.16-.31a7.65,7.65,0,0,1,6.16-1,7.22,7.22,0,0,1,2.89,1.44,4.5,4.5,0,0,1,1.63,2.76Z"/><path class="cls-2" d="M14.41,28.59a4.91,4.91,0,0,1,1.12-1.79,4.15,4.15,0,0,1,2-1.06,8.64,8.64,0,0,1,4.25.34c1.32.37,2.57.85,3.83,1.18A4.49,4.49,0,0,0,29.25,27l.11.14a3.37,3.37,0,0,1-1.84,1,6.42,6.42,0,0,1-2.14,0,33.87,33.87,0,0,1-4-1,10.42,10.42,0,0,0-3.73-.48,4.71,4.71,0,0,0-3.12,1.91Z"/><path class="cls-2" d="M24.77,5.81a10.32,10.32,0,0,1-.61,4.39A12.92,12.92,0,0,1,21.85,14c-1.87,2.3-4.22,4-5.47,6.65l-.08,0a10,10,0,0,1,2-3.92c.9-1.17,1.88-2.24,2.77-3.34a18.92,18.92,0,0,0,2.27-3.53,19,19,0,0,0,1.37-4Z"/><path class="cls-2" d="M20.26,10.93c-.64,1.36-1.48,2.6-2.21,3.84a21.53,21.53,0,0,0-1.81,3.86c-1,2.7-1.53,5.58-2.39,8.44h-.07A27.73,27.73,0,0,1,14,22.6a21.87,21.87,0,0,1,1-4.4,13.89,13.89,0,0,1,2.14-4,29.7,29.7,0,0,1,3-3.29Z"/><path class="cls-2" d="M18.83,8.4c-2.21,2.7-4.3,5.64-4.6,10.41-1.34-5.4,3.05-10.71,4.53-12l.35,1.05A6.28,6.28,0,0,1,24.91,4,14.5,14.5,0,0,1,23,7.1c.49-1.44.48-1.86.61-2.22a7.58,7.58,0,0,0-4.44,4.54A2.22,2.22,0,0,1,18.83,8.4Z"/></g></g></svg>