<?xml version="1.0" encoding="UTF-8" standalone="no"?>
<!-- Created with Inkscape (http://www.inkscape.org/) -->

<svg
   xmlns:dc="http://purl.org/dc/elements/1.1/"
   xmlns:cc="http://creativecommons.org/ns#"
   xmlns:rdf="http://www.w3.org/1999/02/22-rdf-syntax-ns#"
   xmlns:svg="http://www.w3.org/2000/svg"
   xmlns="http://www.w3.org/2000/svg"
   xmlns:sodipodi="http://sodipodi.sourceforge.net/DTD/sodipodi-0.dtd"
   xmlns:inkscape="http://www.inkscape.org/namespaces/inkscape"
   width="145.11111mm"
   height="78.650322mm"
   viewBox="0 0 514.17323 278.68224"
   id="svg6328"
   version="1.1"
   inkscape:version="0.91 r13725"
   sodipodi:docname="Folio.svg">
  <defs
     id="defs6330">
    <clipPath
       id="clipPath5233"
       clipPathUnits="userSpaceOnUse">
      <path
         inkscape:connector-curvature="0"
         id="path5235"
         d="m 165.007,655.552 208.569,0 0,110.336 -208.569,0 0,-110.336 z" />
    </clipPath>
  </defs>
  <sodipodi:namedview
     id="base"
     pagecolor="#ffffff"
     bordercolor="#666666"
     borderopacity="1.0"
     inkscape:pageopacity="0.0"
     inkscape:pageshadow="2"
     inkscape:zoom="0.49497475"
     inkscape:cx="-351.64013"
     inkscape:cy="82.782093"
     inkscape:document-units="px"
     inkscape:current-layer="layer1"
     showgrid="false"
     fit-margin-left="2"
     fit-margin-bottom="2"
     fit-margin-top="2"
     fit-margin-right="2"
     inkscape:window-width="1920"
     inkscape:window-height="1017"
     inkscape:window-x="-8"
     inkscape:window-y="-8"
     inkscape:window-maximized="1" />
  <metadata
     id="metadata6333">
    <rdf:RDF>
      <cc:Work
         rdf:about="">
        <dc:format>image/svg+xml</dc:format>
        <dc:type
           rdf:resource="http://purl.org/dc/dcmitype/StillImage" />
        <dc:title></dc:title>
      </cc:Work>
    </rdf:RDF>
  </metadata>
  <g
     inkscape:label="Calque 1"
     inkscape:groupmode="layer"
     id="layer1"
     transform="translate(-74.341962,-281.59248)">
    <g
       id="g5229"
       transform="matrix(2.3973047,0,0,-2.3973047,-314.14452,2124.746)"
       style="fill:#000000">
      <g
         id="g5231"
         clip-path="url(#clipPath5233)"
         style="fill:#000000">
        <g
           id="g5237"
           transform="translate(360.816,685.6725)"
           style="fill:#000000">
          <path
             d="m 0,0 c 0,-11.657 -4.003,-25.578 -17.058,-25.578 -13.047,0 -19.131,14.832 -19.131,28.602 0,16.651 7.267,26.186 17.058,26.186 C -5.041,29.21 0,12.863 0,0 m -17.353,33.752 c -17.506,0 -31.591,-13.622 -31.591,-32.693 0,-18.92 13.35,-31.18 30.408,-31.18 18.536,0 31.295,13.623 31.295,32.542 0,18.616 -13.498,31.331 -30.112,31.331 m -43.516,38.442 c -4.302,0 -8.009,-3.024 -8.009,-8.022 0,-4.086 2.964,-7.414 7.566,-7.414 4.003,0 7.71,2.421 7.71,7.718 0,4.238 -2.821,7.718 -7.267,7.718 m -4.893,-83.244 c 0,-10.898 -0.152,-12.412 -5.641,-13.166 l -3.112,-0.456 c -1.038,-0.755 -0.747,-3.331 0.292,-3.783 4.158,0.304 8.605,0.452 13.95,0.452 5.189,0 9.487,-0.148 13.941,-0.452 1.039,0.452 1.335,3.028 0.296,3.783 l -3.116,0.456 c -5.337,0.754 -5.64,2.268 -5.64,13.166 l 0,27.245 c 0,6.204 0.303,13.47 0.595,18.768 -0.148,0.603 -0.739,0.906 -1.482,0.906 C -59.091,33.6 -67.544,29.665 -70.955,28.455 -71.699,28 -71.699,26.334 -71.103,25.73 l 1.334,-0.91 c 4.007,-2.725 4.007,-3.48 4.007,-9.384 l 0,-26.486 z M -84.13,60.541 c 0,6.659 0.303,14.225 0.447,18.768 -0.296,0.607 -0.887,0.907 -1.478,0.907 -5.345,-2.877 -12.316,-5.146 -16.025,-6.356 -0.741,-0.456 -0.741,-2.573 0,-3.028 l 1.484,-0.907 c 4.452,-2.725 4.598,-3.632 4.598,-12.564 l 0,-68.411 c 0,-10.898 -0.146,-12.412 -5.637,-13.166 l -3.411,-0.456 c -1.039,-0.755 -0.741,-3.331 0.299,-3.783 4.451,0.304 8.897,0.452 14.24,0.452 5.191,0 9.49,-0.148 14.387,-0.452 1.039,0.452 1.33,3.028 0.292,3.783 l -3.556,0.456 c -5.337,0.754 -5.64,2.268 -5.64,13.166 l 0,71.591 z M -113.762,0 c 0,-11.657 -4.005,-25.578 -17.057,-25.578 -13.053,0 -19.135,14.832 -19.135,28.602 0,16.651 7.268,26.186 17.057,26.186 14.092,0 19.135,-16.347 19.135,-29.21 m -17.355,33.752 c -17.501,0 -31.593,-13.622 -31.593,-32.693 0,-18.92 13.349,-31.18 30.407,-31.18 18.541,0 31.297,13.623 31.297,32.542 0,18.616 -13.495,31.331 -30.111,31.331 m -25.629,-8.477 c 1.632,0.607 2.671,4.842 1.039,6.356 l -16.91,0 c -2.521,0 -2.521,0.152 -2.521,4.238 l 0,4.391 c 0,7.566 0.593,18.615 3.26,25.578 2.227,5.449 5.936,8.325 10.534,8.325 4.896,0 9.049,-3.331 11.867,-6.659 1.039,-1.211 1.927,-1.818 3.559,-1.818 2.819,0 5.637,2.421 5.637,5.449 0,5.449 -6.675,9.081 -14.537,9.081 -14.683,0 -22.99,-10.595 -26.698,-19.219 -3.561,-8.478 -4.598,-17.861 -4.598,-26.642 0,-1.514 -1.038,-2.421 -2.224,-3.024 l -6.382,-3.18 c -0.593,-0.907 -0.441,-2.269 0.447,-2.876 l 5.191,0 c 2.968,0 2.968,-0.303 2.968,-4.39 l 0,-31.935 c 0,-10.898 -0.149,-12.412 -5.636,-13.166 l -3.411,-0.456 c -1.039,-0.755 -0.745,-3.331 0.295,-3.783 4.45,0.304 8.901,0.452 14.239,0.452 5.192,0 9.494,-0.148 16.165,-0.452 1.041,0.452 1.339,3.028 0.3,3.783 l -5.339,0.456 c -5.341,0.451 -5.637,2.268 -5.637,13.166 l 0,31.935 c 0,4.087 0,4.39 2.521,4.39 l 15.871,0 z"
             style="fill:#000000;fill-opacity:1;fill-rule:nonzero;stroke:none"
             id="path5239"
             inkscape:connector-curvature="0" />
        </g>
      </g>
    </g>
  </g>
</svg>
