<svg xmlns="http://www.w3.org/2000/svg" viewBox="0 0 29.04 39.09"><defs><style>.cls-1{fill:none;stroke:#fff;stroke-linecap:round;stroke-linejoin:round;}</style></defs><g id="Calque_2" data-name="Calque 2"><g id="Textes"><polyline class="cls-1" points="7.91 3.15 24.3 3.15 24.3 33.3 0.5 33.3 0.5 3.15 5.83 3.15"/><polyline class="cls-1" points="24.3 5.79 26.42 5.79 26.42 35.94 2.62 35.94 2.62 34.7"/><polyline class="cls-1" points="26.42 8.43 28.54 8.43 28.54 38.59 4.73 38.59 4.73 37.35"/><path class="cls-1" d="M4.6,5.48V12A1.7,1.7,0,0,0,8,12V3A2.48,2.48,0,0,0,3,3"/><line class="cls-1" x1="4.73" y1="19.2" x2="19.64" y2="19.2"/><line class="cls-1" x1="4.73" y1="22.9" x2="19.64" y2="22.9"/><line class="cls-1" x1="4.73" y1="26.61" x2="19.64" y2="26.61"/></g></g></svg>